<svg version="1.1" preserveAspectRatio="none" xmlns="http://www.w3.org/2000/svg" width="500" height="500" viewBox="0 0 500 500"><rect width="100%" height="100%" fill="#FFFFFF" fill-opacity="1"/><svg viewBox="140.3012 161.5031 351.5103 186" width="333" height="176.20536297229415" x="83.5px" y="161.8973px" xmlns="http://www.w3.org/2000/svg" xmlns:xlink="http://www.w3.org/1999/xlink" preserveAspectRatio="none"><defs></defs><style>.companyName {fill:#0C0C0C;fill-opacity:1;}.icon3 {fill:#0C0C0C;fill-opacity:1;}.icon3-str {stroke:#0C0C0C;stroke-opacity:1;}.text {fill:#0C0C0C;fill-opacity:1;}</style><g opacity="1" transform="rotate(0 174.9788 171.5031)">
<svg width="316.8327" height="120" x="174.9788" y="171.5031" version="1.1" preserveAspectRatio="none" viewBox="2.1972 -22.44 137.0828 51.92">
  <g transform="matrix(1 0 0 1 0 0)" class="companyName"><path id="id-D6z1nYkh12" d="M7.92-21.04L7.92-21.04Q7.84-20.04 7.46-18.78Q7.08-17.52 6.92-16.72L6.92-16.72L6.92-16.24Q6.92-15.68 6.84-15.04Q6.76-14.40 6.68-13.82Q6.60-13.24 6.50-12.80Q6.40-12.36 6.40-12.20L6.40-12.20Q6.36-12 6.36-11.24Q6.36-10.48 6.36-9.20L6.36-9.20L6.36-8.72Q6.36-7.92 6.28-7.32Q6.20-6.72 6.08-6.24L6.08-6.24L6.44-3.24Q6.60-2.80 7.52-1.92L7.52-1.92Q7.32-1.20 6.48-0.62Q5.64-0.04 4.76-0.04L4.76-0.04Q3.56-0.04 2.94-1.18Q2.32-2.32 2.32-5L2.32-5Q2.32-5.44 2.38-5.76Q2.44-6.08 2.44-6.56L2.44-6.56Q2.44-7.52 2.20-8.96L2.20-8.96Q2.40-9.40 2.50-10.08Q2.60-10.76 2.64-11.38Q2.68-12 2.68-12.44Q2.68-12.88 2.68-12.80L2.68-12.80Q2.68-12.76 2.78-13.36Q2.88-13.96 3.00-14.78Q3.12-15.60 3.22-16.48Q3.32-17.36 3.32-17.88L3.32-17.88L3.32-18.20L4.00-21.56Q4.52-22.44 5.80-22.44L5.80-22.44Q7.20-22.44 7.92-21.04Z M24.04-1L24.04-1Q23.52-0.64 22.36-0.30Q21.20 0.04 19.96 0.28L19.96 0.28L18.32-0.04Q17.96-0.16 17.14-0.60Q16.32-1.04 15.48-1.94Q14.64-2.84 14.00-4.26Q13.36-5.68 13.36-7.72L13.36-7.72Q13.36-8.44 13.70-9.42Q14.04-10.40 14.72-11.26Q15.40-12.12 16.42-12.72Q17.44-13.32 18.80-13.32L18.80-13.32Q21.52-13.32 23.72-11.56L23.72-11.56Q25.64-8.92 25.64-5.72L25.64-5.72Q25.64-3.36 24.04-1ZM22.08-6.68L22.08-6.68Q21.88-8.24 21.10-9.14Q20.32-10.04 19.12-10.04L19.12-10.04Q18.32-10.04 17.62-9.26Q16.92-8.48 16.92-7L16.92-7Q16.92-6.40 17.08-5.74Q17.24-5.08 17.60-4.54Q17.96-4 18.52-3.66Q19.08-3.32 19.88-3.32L19.88-3.32Q21.16-3.32 21.64-4.10Q22.12-4.88 22.12-6.04L22.12-6.04Q22.12-6.20 22.10-6.34Q22.08-6.48 22.08-6.68Z M44.92-13.28L44.92-13.28Q45.04-12.72 45.04-11.88L45.04-11.88Q45.04-11.20 44.96-10.30Q44.88-9.40 44.72-8.32L44.72-8.32Q44.76-8.20 44.76-8.04Q44.76-7.88 44.76-7.68L44.76-7.68Q44.76-7.24 44.70-6.66Q44.64-6.08 44.56-5.32L44.56-5.32Q44.60-5.12 44.60-4.92Q44.60-4.72 44.60-4.44L44.60-4.44Q44.60-3.52 44.48-2.16Q44.36-0.80 44.16 1.08L44.16 1.08Q43.60 5.72 40.36 7.84L40.36 7.84Q39.20 8.28 38.06 8.50Q36.92 8.72 35.76 8.72L35.76 8.72Q34.24 8.72 31.00 7.40L31.00 7.40L29.00 5.72Q28.40 5.24 28.18 4.96Q27.96 4.68 27.96 4.28L27.96 4.28Q27.96 3.44 28.44 2.82Q28.92 2.20 29.72 2.20L29.72 2.20Q30.24 2.20 30.88 2.52L30.88 2.52L32.88 4.20Q34.32 5.16 36.12 5.20L36.12 5.20Q36.32 5.24 36.64 5.14Q36.96 5.04 37.40 4.92L37.40 4.92L38.72 4.56Q40.16 3.64 40.60 1.16L40.60 1.16Q40.64 0.80 40.68 0.28L40.68 0.28Q40.76-0.68 40.92-2.44L40.92-2.44Q40.76-2.36 40.20-2.14Q39.64-1.92 38.82-1.66Q38.00-1.40 36.94-1.20Q35.88-1 34.72-1L34.72-1Q34.52-1 34.30-1.10Q34.08-1.20 33.72-1.44Q33.36-1.68 32.86-2.08Q32.36-2.48 31.64-3.12L31.64-3.12L30.68-4.92Q30.32-5.60 30.18-6.30Q30.04-7 30.04-7.68L30.04-7.68Q30.04-8.80 30.90-9.94Q31.76-11.08 33.06-12Q34.36-12.92 35.88-13.50Q37.40-14.08 38.68-14.08L38.68-14.08Q39.28-14.08 39.86-14Q40.44-13.92 41.64-13.56L41.64-13.56L41.84-14.04Q42.36-14.40 43.12-14.40L43.12-14.40Q44.64-14.40 44.92-13.28ZM41.12-9.44L41.12-9.92Q40.72-10.20 40.22-10.32Q39.72-10.44 39.24-10.56L39.24-10.56Q38.72-10.48 38.04-10.34Q37.36-10.20 36.52-10L36.52-10Q33.88-8.48 33.88-7.24L33.88-7.24Q33.88-6.56 34.36-5.90Q34.84-5.24 35.72-4.56L35.72-4.56Q36.32-4.60 37.00-4.70Q37.68-4.80 38.36-5.04Q39.04-5.28 39.68-5.74Q40.32-6.20 40.92-7L40.92-7Q41.00-7.68 41.06-8.28Q41.12-8.88 41.12-9.44L41.12-9.44Z M15.52 24.16L15.52 24.16Q14.76 25.76 13.04 26.70Q11.32 27.64 9.20 27.64L9.20 27.64Q8.92 27.64 8.28 27.56Q7.64 27.48 6.86 27.24Q6.08 27 5.26 26.58Q4.44 26.16 3.76 25.46Q3.08 24.76 2.64 23.76Q2.20 22.76 2.20 21.40L2.20 21.40Q2.16 19.60 2.70 18.12Q3.24 16.64 4.44 15.12L4.44 15.12L5.72 13.48Q7.96 11.96 10.76 11.96L10.76 11.96Q12.28 11.96 13.18 12.52Q14.08 13.08 14.08 14.12L14.08 14.12Q14.08 14.92 13.50 15.42Q12.92 15.92 12 15.92L12 15.92Q11.96 15.92 11.70 15.86Q11.44 15.80 11.12 15.72Q10.80 15.64 10.48 15.58Q10.16 15.52 9.96 15.52L9.96 15.52Q9.04 15.52 7.86 16.48Q6.68 17.44 6 19.52L6 19.52Q5.72 20.40 5.72 20.96L5.72 20.96Q5.72 22.08 6.34 22.72Q6.96 23.36 7.72 23.70Q8.48 24.04 9.12 24.14Q9.76 24.24 9.80 24.24L9.80 24.24Q10.36 24.24 10.92 23.92Q11.48 23.60 11.94 23.20Q12.40 22.80 12.68 22.50Q12.96 22.20 12.92 22.20L12.92 22.20Q13.32 21.84 13.84 21.84L13.84 21.84Q14.48 21.84 15.02 22.50Q15.56 23.16 15.56 23.84L15.56 23.84Q15.56 24.04 15.52 24.16Z M30.04 27L30.04 27Q29.52 27.36 28.36 27.70Q27.20 28.04 25.96 28.28L25.96 28.28L24.32 27.96Q23.96 27.84 23.14 27.40Q22.32 26.96 21.48 26.06Q20.64 25.16 20 23.74Q19.36 22.32 19.36 20.28L19.36 20.28Q19.36 19.56 19.70 18.58Q20.04 17.60 20.72 16.74Q21.40 15.88 22.42 15.28Q23.44 14.68 24.80 14.68L24.80 14.68Q27.52 14.68 29.72 16.44L29.72 16.44Q31.64 19.08 31.64 22.28L31.64 22.28Q31.64 24.64 30.04 27ZM28.08 21.32L28.08 21.32Q27.88 19.76 27.10 18.86Q26.32 17.96 25.12 17.96L25.12 17.96Q24.32 17.96 23.62 18.74Q22.92 19.52 22.92 21L22.92 21Q22.92 21.60 23.08 22.26Q23.24 22.92 23.60 23.46Q23.96 24 24.52 24.34Q25.08 24.68 25.88 24.68L25.88 24.68Q27.16 24.68 27.64 23.90Q28.12 23.12 28.12 21.96L28.12 21.96Q28.12 21.80 28.10 21.66Q28.08 21.52 28.08 21.32Z M42.88 6.96L42.88 6.96Q42.80 7.96 42.42 9.22Q42.04 10.48 41.88 11.28L41.88 11.28L41.88 11.76Q41.88 12.32 41.80 12.96Q41.72 13.60 41.64 14.18Q41.56 14.76 41.46 15.20Q41.36 15.64 41.36 15.80L41.36 15.80Q41.32 16 41.32 16.76Q41.32 17.52 41.32 18.80L41.32 18.80L41.32 19.28Q41.32 20.08 41.24 20.68Q41.16 21.28 41.04 21.76L41.04 21.76L41.40 24.76Q41.56 25.20 42.48 26.08L42.48 26.08Q42.28 26.80 41.44 27.38Q40.60 27.96 39.72 27.96L39.72 27.96Q38.52 27.96 37.90 26.82Q37.28 25.68 37.28 23L37.28 23Q37.28 22.56 37.34 22.24Q37.40 21.92 37.40 21.44L37.40 21.44Q37.40 20.48 37.16 19.04L37.16 19.04Q37.36 18.60 37.46 17.92Q37.56 17.24 37.60 16.62Q37.64 16 37.64 15.56Q37.64 15.12 37.64 15.20L37.64 15.20Q37.64 15.24 37.74 14.64Q37.84 14.04 37.96 13.22Q38.08 12.40 38.18 11.52Q38.28 10.64 38.28 10.12L38.28 10.12L38.28 9.80L38.96 6.44Q39.48 5.56 40.76 5.56L40.76 5.56Q42.16 5.56 42.88 6.96Z M54.96 6.96L54.96 6.96Q54.88 7.96 54.50 9.22Q54.12 10.48 53.96 11.28L53.96 11.28L53.96 11.76Q53.96 12.32 53.88 12.96Q53.80 13.60 53.72 14.18Q53.64 14.76 53.54 15.20Q53.44 15.64 53.44 15.80L53.44 15.80Q53.40 16 53.40 16.76Q53.40 17.52 53.40 18.80L53.40 18.80L53.40 19.28Q53.40 20.08 53.32 20.68Q53.24 21.28 53.12 21.76L53.12 21.76L53.48 24.76Q53.64 25.20 54.56 26.08L54.56 26.08Q54.36 26.80 53.52 27.38Q52.68 27.96 51.80 27.96L51.80 27.96Q50.60 27.96 49.98 26.82Q49.36 25.68 49.36 23L49.36 23Q49.36 22.56 49.42 22.24Q49.48 21.92 49.48 21.44L49.48 21.44Q49.48 20.48 49.24 19.04L49.24 19.04Q49.44 18.60 49.54 17.92Q49.64 17.24 49.68 16.62Q49.72 16 49.72 15.56Q49.72 15.12 49.72 15.20L49.72 15.20Q49.72 15.24 49.82 14.64Q49.92 14.04 50.04 13.22Q50.16 12.40 50.26 11.52Q50.36 10.64 50.36 10.12L50.36 10.12L50.36 9.80L51.04 6.44Q51.56 5.56 52.84 5.56L52.84 5.56Q54.24 5.56 54.96 6.96Z M74.72 26.40L74.72 26.40Q73.44 27.68 71.84 28.58Q70.24 29.48 68.60 29.48L68.60 29.48Q67.12 29.48 64.80 29L64.80 29Q64 28.48 63.20 27.74Q62.40 27 61.76 26.10Q61.12 25.20 60.72 24.14Q60.32 23.08 60.32 21.96L60.32 21.96Q60.32 21.64 60.36 21.10Q60.40 20.56 60.46 20.02Q60.52 19.48 60.56 19.08Q60.60 18.68 60.60 18.68L60.60 18.68Q61.40 17.40 62.30 16.14Q63.20 14.88 64.84 13.92L64.84 13.92Q67.44 13.36 68.60 13.36L68.60 13.36Q69.20 13.36 69.64 13.42Q70.08 13.48 70.50 13.66Q70.92 13.84 71.34 14.20Q71.76 14.56 72.32 15.12L72.32 15.12Q72.96 15.80 73.34 16.04Q73.72 16.28 73.72 16.48L73.72 16.48Q73.72 20.16 71.44 21.48L71.44 21.48Q70.44 21.84 68.84 22.26Q67.24 22.68 64.48 23.04L64.48 23.04Q65.04 24.56 65.96 25.32Q66.88 26.08 68.04 26.08L68.04 26.08Q69.76 26.08 72.36 24.04L72.36 24.04Q72.76 23.68 73.36 23.68L73.36 23.68Q74 23.68 74.50 24.16Q75 24.64 75 25.36L75 25.36Q75 25.88 74.72 26.40ZM70.20 17.84L70.20 17.84Q69.44 16.60 68.40 16.60L68.40 16.60Q67.96 16.60 67.44 16.72Q66.92 16.84 66.38 17.06Q65.84 17.28 65.38 17.60Q64.92 17.92 64.64 18.36L64.64 18.36L64.24 19.56Q65.60 19.44 66.64 19.36Q67.68 19.28 68.44 19.12Q69.20 18.96 69.64 18.68Q70.08 18.40 70.20 17.84Z M92.76 24.16L92.76 24.16Q92 25.76 90.28 26.70Q88.56 27.64 86.44 27.64L86.44 27.64Q86.16 27.64 85.52 27.56Q84.88 27.48 84.10 27.24Q83.32 27 82.50 26.58Q81.68 26.16 81 25.46Q80.32 24.76 79.88 23.76Q79.44 22.76 79.44 21.40L79.44 21.40Q79.40 19.60 79.94 18.12Q80.48 16.64 81.68 15.12L81.68 15.12L82.96 13.48Q85.20 11.96 88 11.96L88 11.96Q89.52 11.96 90.42 12.52Q91.32 13.08 91.32 14.12L91.32 14.12Q91.32 14.92 90.74 15.42Q90.16 15.92 89.24 15.92L89.24 15.92Q89.20 15.92 88.94 15.86Q88.68 15.80 88.36 15.72Q88.04 15.64 87.72 15.58Q87.40 15.52 87.20 15.52L87.20 15.52Q86.28 15.52 85.10 16.48Q83.92 17.44 83.24 19.52L83.24 19.52Q82.96 20.40 82.96 20.96L82.96 20.96Q82.96 22.08 83.58 22.72Q84.20 23.36 84.96 23.70Q85.72 24.04 86.36 24.14Q87 24.24 87.04 24.24L87.04 24.24Q87.60 24.24 88.16 23.92Q88.72 23.60 89.18 23.20Q89.64 22.80 89.92 22.50Q90.20 22.20 90.16 22.20L90.16 22.20Q90.56 21.84 91.08 21.84L91.08 21.84Q91.72 21.84 92.26 22.50Q92.80 23.16 92.80 23.84L92.80 23.84Q92.80 24.04 92.76 24.16Z M106.92 12.92L106.92 12.92Q107.36 13.28 107.36 14.24L107.36 14.24Q107.36 16 106.04 16L106.04 16L105.88 16Q105.28 16.04 104.48 16.10Q103.68 16.16 102.68 16.28L102.68 16.28Q102.60 16.92 102.52 17.98Q102.44 19.04 102.44 20.52L102.44 20.52Q102.44 20.64 102.46 20.76Q102.48 20.88 102.48 21.04L102.48 21.04L102.48 22.88Q102.48 23.52 102.70 23.90Q102.92 24.28 103.24 24.44L103.24 24.44L104.36 24.80Q105.68 25.24 105.68 26.40L105.68 26.40Q105.68 27.08 105.14 27.60Q104.60 28.12 103.76 28.12L103.76 28.12Q103.52 28.12 102.94 27.98Q102.36 27.84 101.74 27.60Q101.12 27.36 100.58 27Q100.04 26.64 99.84 26.20L99.84 26.20Q99.40 25.28 99.12 24.26Q98.84 23.24 98.84 22.12L98.84 22.12Q98.84 20.88 98.88 20.36Q98.92 19.84 98.96 19.44Q99 19.04 99.04 18.48Q99.08 17.92 99.08 16.64L99.08 16.64Q98.32 16.72 96.84 17.12L96.84 17.12Q95.96 17.12 95.34 16.66Q94.72 16.20 94.72 15.44L94.72 15.44Q94.72 14.88 95.06 14.40Q95.40 13.92 96.48 13.56L96.48 13.56Q96.84 13.44 97.14 13.40Q97.44 13.36 97.74 13.32Q98.04 13.28 98.40 13.26Q98.76 13.24 99.28 13.16L99.28 13.16Q99.32 12.16 99.42 10.90Q99.52 9.64 99.78 8.56Q100.04 7.48 100.54 6.74Q101.04 6 101.88 6L101.88 6Q103.32 6 103.64 7.32L103.64 7.32Q103.64 7.36 103.54 7.86Q103.44 8.36 103.32 8.96Q103.20 9.56 103.10 10.12Q103 10.68 103 10.84L103 10.84L102.88 12.80Q103.16 12.76 103.40 12.74Q103.64 12.72 103.92 12.72L103.92 12.72L104.28 12.72Q104.56 12.72 104.80 12.70Q105.04 12.68 105.24 12.68L105.24 12.68Q106.44 12.68 106.92 12.92Z M121.16 27L121.16 27Q120.64 27.36 119.48 27.70Q118.32 28.04 117.08 28.28L117.08 28.28L115.44 27.96Q115.08 27.84 114.26 27.40Q113.44 26.96 112.60 26.06Q111.76 25.16 111.12 23.74Q110.48 22.32 110.48 20.28L110.48 20.28Q110.48 19.56 110.82 18.58Q111.16 17.60 111.84 16.74Q112.52 15.88 113.54 15.28Q114.56 14.68 115.92 14.68L115.92 14.68Q118.64 14.68 120.84 16.44L120.84 16.44Q122.76 19.08 122.76 22.28L122.76 22.28Q122.76 24.64 121.16 27ZM119.20 21.32L119.20 21.32Q119.00 19.76 118.22 18.86Q117.44 17.96 116.24 17.96L116.24 17.96Q115.44 17.96 114.74 18.74Q114.04 19.52 114.04 21L114.04 21Q114.04 21.60 114.20 22.26Q114.36 22.92 114.72 23.46Q115.08 24 115.64 24.34Q116.20 24.68 117.00 24.68L117.00 24.68Q118.28 24.68 118.76 23.90Q119.24 23.12 119.24 21.96L119.24 21.96Q119.24 21.80 119.22 21.66Q119.20 21.52 119.20 21.32Z M137.24 14.04L138.64 14.40Q139.28 14.80 139.28 15.92L139.28 15.92Q139.28 16.76 138.84 17.36Q138.40 17.96 137.64 17.96L137.64 17.96Q137.16 17.96 136.66 17.70Q136.16 17.44 135.60 17.44L135.60 17.44Q135.12 17.44 134.66 17.62Q134.20 17.80 133.60 18.40L133.60 18.40L132.40 19.60Q132.40 19.88 132.42 20.16Q132.44 20.44 132.44 20.76L132.44 20.76Q132.44 21.24 132.42 21.76Q132.40 22.28 132.36 22.88L132.36 22.88L132.72 26.52Q132.60 28.36 130.84 28.36L130.84 28.36Q129.92 28.36 129.48 27.78Q129.04 27.20 128.88 26.16Q128.72 25.12 128.74 23.72Q128.76 22.32 128.72 20.64L128.72 20.64Q128.64 18.12 128.60 18.12L128.60 18.12L128.60 18.16Q128.44 17.56 128.36 17.10Q128.28 16.64 128.28 16.28L128.28 16.28Q128.28 15.56 128.80 15.10Q129.32 14.64 130.32 14.64L130.32 14.64Q130.96 14.64 131.84 15.64L131.84 15.64Q132.76 14.92 133.26 14.56Q133.76 14.20 134.10 14.04Q134.44 13.88 134.76 13.86Q135.08 13.84 135.60 13.84L135.60 13.84Q136.04 13.80 136.42 13.88Q136.80 13.96 137.24 14.04L137.24 14.04Z"/></g>
</svg>
</g><g opacity="1" transform="rotate(0 174.9788 311.5031)">
<svg width="38.7601" height="26" x="174.9788" y="311.5031" version="1.1" preserveAspectRatio="none" viewBox="2.4 -22 37.04 24.84">
  <g transform="matrix(1 0 0 1 0 0)" class="text"><path id="id-D-YM9nyY42" d="M20.64 2.24L20.64 2.24Q20.28 2.84 19.48 2.84L19.48 2.84Q18.84 2.84 18.54 2.62Q18.24 2.40 18.12 2Q18 1.60 18 1.06Q18 0.52 17.96-0.12L17.96-0.12Q18-0.92 18.02-1.52Q18.04-2.12 18.04-2.52L18.04-2.52L18.04-3Q15.16-0.60 13.28-0.40L13.28-0.40Q12.44-0.32 11.80-0.28Q11.16-0.24 10.72-0.20L10.72-0.20Q10.24-0.16 9.88-0.12L9.88-0.12L9.92-0.12Q8.56-0.12 7.22-0.70Q5.88-1.28 4.80-2.28Q3.72-3.28 3.06-4.62Q2.40-5.96 2.40-7.48L2.40-7.48Q2.40-8.24 2.58-9.48Q2.76-10.72 3.06-12Q3.36-13.28 3.72-14.42Q4.08-15.56 4.40-16.16L4.40-16.16Q5-17.24 6.52-18.64L6.52-18.64Q8.52-19.80 11.72-21.24L11.72-21.24Q12.52-21.40 13.62-21.58Q14.72-21.76 16.16-22L16.16-22Q18.68-21.80 19.78-21.20Q20.88-20.60 20.88-19.56L20.88-19.56Q20.88-18.52 19.72-18.52L19.72-18.52Q19.16-18.52 18.42-18.78Q17.68-19.04 16.88-19.08L16.88-19.08Q15.76-19.12 15.20-19.14Q14.64-19.16 14.56-19.16L14.56-19.16Q11.96-18.68 10.40-17.72L10.40-17.72Q9.44-17.56 8.48-16.74Q7.52-15.92 6.76-14.60Q6-13.28 5.54-11.58Q5.08-9.88 5.08-8L5.08-8Q5.08-6.08 5.86-4.82Q6.64-3.56 8.92-2.80L8.92-2.80Q9.28-2.68 9.88-2.68L9.88-2.68Q11.24-2.68 12.16-2.82Q13.08-2.96 13.82-3.28Q14.56-3.60 15.22-4.12Q15.88-4.64 16.72-5.44L16.72-5.44Q17.44-6.08 17.64-6.08L17.64-6.08Q17.76-6.08 17.80-6.04L17.80-6.04Q17.76-6.24 17.76-6.76L17.76-6.76Q17.76-7 17.76-7.24Q17.76-7.48 17.80-7.80L17.80-7.80Q17.20-8.16 16.14-8.38Q15.08-8.60 14.08-8.70Q13.08-8.80 12.38-8.82Q11.68-8.84 11.76-8.84L11.76-8.84Q11.12-9.44 11.12-10.12L11.12-10.12Q11.12-11.08 12-11.24L12-11.24L11.96-11.24Q11.96-11.32 12.72-11.16Q13.48-11 14.80-11L14.80-11Q15.20-11 15.44-11.08L15.44-11.08Q15.96-11.04 16.66-10.88Q17.36-10.72 18.02-10.50Q18.68-10.28 19.24-10.02Q19.80-9.76 20.08-9.56L20.08-9.56Q20.68-9.12 20.68-7.40L20.68-7.40Q20.68-6.32 20.36-5.48L20.36-5.48Q20.56-4.76 20.56-3L20.56-3Q20.56-1.84 20.60-1.26Q20.64-0.68 20.60-0.64L20.60-0.64Q20.52-0.40 20.52-0.20L20.52-0.20Q20.52 0.08 20.62 0.74Q20.72 1.40 20.72 1.72L20.72 1.72Q20.72 2 20.64 2.24Z M37.88-0.92L37.88-0.92Q37.12-0.40 33.84 0.28L33.84 0.28L32.16-0.04Q31.84-0.16 31.02-0.64Q30.20-1.12 29.34-2.04Q28.48-2.96 27.82-4.36Q27.16-5.76 27.16-7.68L27.16-7.68Q27.16-9.24 28.04-10.46Q28.92-11.68 30.72-13.08L30.72-13.08Q31.68-13.32 32.60-13.32L32.60-13.32Q35.28-13.32 37.52-11.52L37.52-11.52Q39.44-8.88 39.44-5.72L39.44-5.72Q39.44-3.24 37.88-0.92ZM34.24-10.68L34.24-10.68Q33.64-10.96 32.96-10.96L32.96-10.96Q32.48-10.96 31.94-10.72Q31.40-10.48 30.94-10Q30.48-9.52 30.20-8.78Q29.92-8.04 29.92-7.04L29.92-7.04Q29.92-6.24 30.14-5.44Q30.36-4.64 30.82-3.96Q31.28-3.28 32-2.86Q32.72-2.44 33.72-2.44L33.72-2.44Q34.64-2.44 35.80-2.92L35.80-2.92Q36.80-4.16 36.80-5.88L36.80-5.88Q36.80-9.68 34.24-10.68Z"/></g>
</svg>
</g><g opacity="1" transform="rotate(0 140.3012 161.5031)">
<svg width="14.6776" height="186" x="140.3012" y="161.5031" version="1.1" preserveAspectRatio="none" viewBox="6.48 -25.44 2.3200000000000003 29.4">
  <g transform="matrix(1 0 0 1 0 0)" class="icon3"><path id="id-lXek8z7fT1" d="M8.68-12.24L8.68-12.24Q8.68-12 8.74-11Q8.80-10 8.80-8.16L8.80-8.16Q8.80-6.80 8.60-6.32L8.60-6.32Q8.68-5.96 8.68-5.58Q8.68-5.20 8.68-4.76L8.68-4.76Q8.68-3.84 8.58-2.86Q8.48-1.88 8.44-0.96L8.44-0.96Q8.48-0.48 8.48-0.02Q8.48 0.44 8.48 0.88L8.48 0.88Q8.48 1.36 8.48 1.90Q8.48 2.44 8.42 2.90Q8.36 3.36 8.18 3.66Q8 3.96 7.64 3.96L7.64 3.96Q7 3.96 6.84 3.72L6.84 3.72Q6.48 2.24 6.48-0.04L6.48-0.04Q6.48-1.40 6.66-3.12Q6.84-4.84 6.84-6.56L6.84-6.56Q6.84-8.08 6.60-9.52L6.60-9.52Q6.60-9.60 6.64-10.30Q6.68-11 6.72-11.88Q6.76-12.76 6.84-13.54Q6.92-14.32 7.04-14.56L7.04-14.56Q6.84-15.36 6.84-17.48L6.84-17.48Q6.84-18.12 6.84-18.82Q6.84-19.52 6.86-20.40Q6.88-21.28 6.98-22.42Q7.08-23.56 7.28-25.16L7.28-25.16Q7.32-25.44 7.84-25.44L7.84-25.44Q8.60-25.44 8.70-25.04Q8.80-24.64 8.80-23.72L8.80-23.72Q8.80-23.12 8.76-22.32Q8.72-21.52 8.64-20.48L8.64-20.48Q8.68-19.20 8.68-17.14Q8.68-15.08 8.68-12.24Z"/></g>
</svg>
</g></svg></svg>